<svg width="23" height="19" viewBox="0 0 23 19" xmlns="http://www.w3.org/2000/svg">
<path fill-rule="evenodd" clip-rule="evenodd" d="M22.0598 8.16111L3.77284 8.10818L10.7942 1.58015C11.1618 1.23832 11.1777 0.668672 10.8295 0.307667C10.4817 -0.0528864 9.90153 -0.0689657 9.53341 0.272866L1.5148 7.7286C1.16777 8.06779 0.975343 8.51903 0.973951 9.00007C0.97256 9.48066 1.16237 9.93346 1.52343 10.2896L9.48321 17.7762C9.6601 17.9428 9.8872 18.0258 10.1145 18.0265C10.3565 18.0272 10.5988 17.9343 10.7795 17.7489C11.1298 17.3899 11.1172 16.8207 10.7515 16.4767L3.73875 9.90807L22.0546 9.96108C22.5606 9.96254 22.9724 9.56054 22.9739 9.06375C22.9753 8.56696 22.5658 8.16257 22.0598 8.16111Z" />
</svg>
