<svg width="23" height="19" viewBox="0 0 23 19" fill="none" xmlns="http://www.w3.org/2000/svg">
<path d="M0.935133 8.49241L19.2221 8.43948L12.2008 1.91145C11.8331 1.56962 11.8172 0.999971 12.1654 0.638966C12.5132 0.278412 13.0934 0.262333 13.4615 0.604165L21.4801 8.0599C21.8272 8.39909 22.0196 8.85033 22.021 9.33137C22.0224 9.81196 21.8326 10.2648 21.4715 10.6209L13.5117 18.1075C13.3348 18.2741 13.1077 18.3571 12.8804 18.3578C12.6384 18.3585 12.3961 18.2656 12.2155 18.0802C11.8652 17.7212 11.8777 17.152 12.2434 16.808L19.2562 10.2394L0.940342 10.2924C0.434344 10.2938 0.0225132 9.89184 0.0210753 9.39505C0.0196374 8.89825 0.429134 8.49387 0.935133 8.49241Z" fill="#D1D1D1"/>
</svg>
