<svg width="37" height="37" viewBox="0 0 37 37" fill="none" xmlns="http://www.w3.org/2000/svg">
<path d="M1.44531 17.0547H35.5547C36.3529 17.0547 37 17.7018 37 18.5C37 19.2982 36.3529 19.9453 35.5547 19.9453H1.44531C0.647068 19.9453 0 19.2982 0 18.5C0 17.7018 0.647068 17.0547 1.44531 17.0547Z" fill="black"/>
<path d="M1.44531 5.49219H35.5547C36.3529 5.49219 37 6.13925 37 6.9375C37 7.73575 36.3529 8.38281 35.5547 8.38281H1.44531C0.647068 8.38281 0 7.73575 0 6.9375C0 6.13925 0.647068 5.49219 1.44531 5.49219Z" fill="black"/>
<path d="M1.44531 28.6172H35.5547C36.3529 28.6172 37 29.2643 37 30.0625C37 30.8607 36.3529 31.5078 35.5547 31.5078H1.44531C0.647068 31.5078 0 30.8607 0 30.0625C0 29.2643 0.647068 28.6172 1.44531 28.6172Z" fill="black"/>
</svg>
