<svg width="70" height="70" viewBox="0 0 70 70" fill="none" xmlns="http://www.w3.org/2000/svg">
<g clip-path="url(#clip0_1_91)">
<path d="M1.36719 48.9453H21.3281V68.6328H1.36719V48.9453Z" fill="#87B0EC"/>
<path d="M21.3281 30.3516H48.6719V68.6328H21.3281V30.3516Z" fill="#868EAF"/>
<path d="M48.6719 48.9453H68.6328V68.6328H48.6719V48.9453Z" fill="#DFECFF"/>
<path d="M35 24.5074L27.3838 30.0664C26.2474 30.8958 24.7146 29.7822 25.1526 28.445L28.0856 19.484L20.432 13.9485C19.2929 13.1245 19.8755 11.3252 21.2812 11.3252H30.727L33.6211 2.37067C34.0537 1.03286 35.9464 1.03286 36.379 2.37067L39.2736 11.3252H48.7195C50.1251 11.3252 50.7072 13.1245 49.5686 13.9485L41.9145 19.484L44.8481 28.445C45.286 29.7822 43.7527 30.8958 42.6162 30.0664L35 24.5074Z" fill="#FFA76B"/>
<path d="M68.6327 47.578H50.039V30.3515C50.039 29.5963 49.4269 28.9843 48.6718 28.9843H46.2899C46.2974 28.666 46.252 28.3413 46.1473 28.0198L43.524 20.0068L50.3695 15.0561C51.3778 14.3266 51.7816 13.0903 51.3987 11.9068C51.0152 10.7228 49.9637 9.95748 48.7188 9.95748H40.2679L37.6793 1.94984C37.2969 0.765303 36.2448 0 34.9999 0C33.755 0 32.703 0.765303 32.32 1.95037L29.7315 9.95802H21.2806C20.0362 9.95802 18.9846 10.7228 18.6012 11.9068C18.2183 13.0908 18.622 14.3266 19.6303 15.0561L26.4759 20.0068L23.8526 28.0198C23.7474 28.3413 23.7025 28.6666 23.7094 28.9843H21.3281C20.5729 28.9843 19.9609 29.5963 19.9609 30.3515V47.578H1.36718C0.612029 47.578 0 48.1901 0 48.9452V68.6327C0 69.3878 0.612029 69.9999 1.36718 69.9999H68.6327C69.3878 69.9999 69.9999 69.3878 69.9999 68.6327V64.2577C69.9999 63.5025 69.3878 62.8905 68.6327 62.8905C67.8775 62.8905 67.2655 63.5025 67.2655 64.2577V67.2655H50.039V50.3124H67.2655V53.3202C67.2655 54.0754 67.8775 54.6874 68.6327 54.6874C69.3878 54.6874 69.9999 54.0754 69.9999 53.3202V48.9452C69.9999 48.1901 69.3878 47.578 68.6327 47.578V47.578ZM26.4518 28.87L29.3849 19.9091C29.5702 19.3441 29.3683 18.724 28.8866 18.3758L21.233 12.8409C21.1994 12.8168 21.1844 12.8056 21.2031 12.749C21.2213 12.6924 21.24 12.6924 21.2811 12.6924H30.7269C31.3197 12.6924 31.8453 12.3095 32.0274 11.7455L34.922 2.79098C34.9348 2.75199 34.9407 2.73437 34.9999 2.73437C35.0597 2.73437 35.0651 2.75199 35.0779 2.79098L37.9725 11.7455C38.1546 12.3095 38.6801 12.6919 39.2735 12.6919H48.7193C48.7599 12.6919 48.7786 12.6919 48.7973 12.7485C48.8154 12.8056 48.8005 12.8163 48.7674 12.8403L41.1133 18.3758C40.6316 18.724 40.4302 19.3441 40.615 19.9091L43.5486 28.87C43.5609 28.909 43.5667 28.9266 43.5187 28.9619C43.4706 28.9971 43.4551 28.9859 43.422 28.9619L35.8058 23.4029C35.566 23.2277 35.283 23.1401 34.9999 23.1401C34.7169 23.1401 34.4338 23.2277 34.1935 23.4029L26.5779 28.9619C26.5442 28.9859 26.5293 28.9971 26.4812 28.9619C26.4331 28.9272 26.439 28.909 26.4518 28.87V28.87ZM34.9999 26.1997L38.8147 28.9843H31.1852L34.9999 26.1997ZM2.73437 50.3124H19.9609V67.2655H2.73437V50.3124ZM22.6953 48.9452V31.7187H26.4353C26.4668 31.7198 26.4983 31.7224 26.5298 31.7224C26.5608 31.7224 26.5923 31.7198 26.6238 31.7187H43.3766C43.4391 31.7208 43.501 31.7208 43.5635 31.7187H47.3046V67.2655H22.6953V48.9452Z" fill="black"/>
<path d="M61.25 4.70505C62.0052 4.70505 62.6172 4.09302 62.6172 3.33786V1.36719C62.6172 0.61203 62.0052 0 61.25 0C60.4948 0 59.8828 0.61203 59.8828 1.36719V3.33786C59.8828 4.09302 60.4948 4.70505 61.25 4.70505Z" fill="black"/>
<path d="M61.25 13.6718C62.0052 13.6718 62.6172 13.0598 62.6172 12.3047V10.334C62.6172 9.57883 62.0052 8.9668 61.25 8.9668C60.4948 8.9668 59.8828 9.57883 59.8828 10.334V12.3047C59.8828 13.0598 60.4948 13.6718 61.25 13.6718Z" fill="black"/>
<path d="M64.748 8.20312H66.7187C67.4739 8.20312 68.0859 7.59109 68.0859 6.83594C68.0859 6.08078 67.4739 5.46875 66.7187 5.46875H64.748C63.9929 5.46875 63.3809 6.08078 63.3809 6.83594C63.3809 7.59109 63.9929 8.20312 64.748 8.20312Z" fill="black"/>
<path d="M55.7812 8.20312H57.7519C58.5071 8.20312 59.1191 7.59109 59.1191 6.83594C59.1191 6.08078 58.5071 5.46875 57.7519 5.46875H55.7812C55.0261 5.46875 54.4141 6.08078 54.4141 6.83594C54.4141 7.59109 55.0261 8.20312 55.7812 8.20312Z" fill="black"/>
<path d="M8.75 21.8425C9.50516 21.8425 10.1172 21.2299 10.1172 20.4753V18.5046C10.1172 17.7495 9.50516 17.1375 8.75 17.1375C7.99484 17.1375 7.38281 17.7495 7.38281 18.5046V20.4753C7.38281 21.2299 7.99484 21.8425 8.75 21.8425Z" fill="black"/>
<path d="M8.75 30.8092C9.50516 30.8092 10.1172 30.1967 10.1172 29.442V27.4708C10.1172 26.7157 9.50516 26.1036 8.75 26.1036C7.99484 26.1036 7.38281 26.7157 7.38281 27.4708V29.442C7.38281 30.1967 7.99484 30.8092 8.75 30.8092Z" fill="black"/>
<path d="M12.248 25.3406H14.2187C14.9739 25.3406 15.5859 24.728 15.5859 23.9734C15.5859 23.2182 14.9739 22.6062 14.2187 22.6062H12.248C11.4929 22.6062 10.8809 23.2182 10.8809 23.9734C10.8809 24.728 11.4929 25.3406 12.248 25.3406Z" fill="black"/>
<path d="M3.28125 25.3406H5.25192C6.00708 25.3406 6.61911 24.728 6.61911 23.9734C6.61911 23.2182 6.00708 22.6062 5.25192 22.6062H3.28125C2.52609 22.6062 1.91406 23.2182 1.91406 23.9734C1.91406 24.728 2.52609 25.3406 3.28125 25.3406Z" fill="black"/>
<path d="M68.6328 57.4219C68.2734 57.4219 67.9204 57.5682 67.6662 57.8224C67.412 58.0766 67.2656 58.4296 67.2656 58.7891C67.2656 59.1485 67.412 59.5015 67.6662 59.7557C67.9204 60.0099 68.2734 60.1562 68.6328 60.1562C68.9922 60.1562 69.3452 60.0099 69.5995 59.7557C69.8537 59.5015 70 59.1485 70 58.7891C70 58.4296 69.8537 58.0766 69.5995 57.8224C69.3452 57.5682 68.9922 57.4219 68.6328 57.4219Z" fill="black"/>
</g>
<defs>
<clipPath id="clip0_1_91">
<rect width="70" height="70" fill="white"/>
</clipPath>
</defs>
</svg>
