<svg width="16" height="16" viewBox="0 0 16 16" xmlns="http://www.w3.org/2000/svg">
<path d="M8 0.25C3.71875 0.25 0.25 3.71875 0.25 8C0.25 12.2812 3.71875 15.75 8 15.75C12.2812 15.75 15.75 12.2812 15.75 8C15.75 3.71875 12.2812 0.25 8 0.25ZM14.75 8C14.75 11.7094 11.7469 14.75 8 14.75C4.29063 14.75 1.25 11.7469 1.25 8C1.25 4.29063 4.25313 1.25 8 1.25C11.7094 1.25 14.75 4.25313 14.75 8ZM10.0969 10.7594L7.55937 8.91562C7.4625 8.84375 7.40625 8.73125 7.40625 8.6125V3.625C7.40625 3.41875 7.575 3.25 7.78125 3.25H8.21875C8.425 3.25 8.59375 3.41875 8.59375 3.625V8.19687L10.7969 9.8C10.9656 9.92188 11 10.1562 10.8781 10.325L10.6219 10.6781C10.5 10.8438 10.2656 10.8812 10.0969 10.7594Z"/>
</svg>
