<svg width="13" height="22" viewBox="0 0 13 22" fill="none" xmlns="http://www.w3.org/2000/svg">
<path d="M8.02989 22H4.36199C3.74933 22 3.25096 21.5213 3.25096 20.9328V12.9863H1.11103C0.498373 12.9863 0 12.5074 0 11.9191V8.51402C0 7.92555 0.498373 7.44685 1.11103 7.44685H3.25096V5.7417C3.25096 4.05098 3.80368 2.61253 4.84918 1.58212C5.8994 0.547012 7.36709 0 9.09357 0L11.8909 0.00436399C12.5025 0.00537109 13 0.48407 13 1.07153V4.23309C13 4.82156 12.5018 5.30026 11.8893 5.30026L10.0059 5.30093C9.43153 5.30093 9.28526 5.41154 9.25399 5.44545C9.20244 5.50168 9.1411 5.66063 9.1411 6.09955V7.44669H11.7478C11.944 7.44669 12.1341 7.49318 12.2975 7.5808C12.65 7.76996 12.8691 8.12764 12.8691 8.51419L12.8677 11.9193C12.8677 12.5074 12.3693 12.9861 11.7567 12.9861H9.1411V20.9328C9.1411 21.5213 8.64255 22 8.02989 22ZM4.5937 20.7103H7.79818V12.4089C7.79818 12.016 8.13107 11.6964 8.53998 11.6964H11.525L11.5262 8.73659H8.5398C8.1309 8.73659 7.79818 8.41701 7.79818 8.02408V6.09955C7.79818 5.59567 7.85148 5.02264 8.24745 4.59195C8.72591 4.07129 9.47993 4.0112 10.0056 4.0112L11.6573 4.01053V1.29376L9.09252 1.28973C6.31792 1.28973 4.5937 2.99573 4.5937 5.7417V8.02408C4.5937 8.41684 4.26099 8.73659 3.85208 8.73659H1.34274V11.6964H3.85208C4.26099 11.6964 4.5937 12.016 4.5937 12.4089V20.7103Z" fill="white"/>
</svg>
