<svg width="23" height="23" viewBox="0 0 23 23" fill="none" xmlns="http://www.w3.org/2000/svg">
<path d="M16.7741 0H6.22589C2.79288 0 0 2.79288 0 6.22589V16.7743C0 20.2071 2.79288 23 6.22589 23H16.7743C20.2071 23 23 20.2071 23 16.7743V6.22589C23 2.79288 20.2071 0 16.7741 0ZM21.6516 16.7743C21.6516 19.4636 19.4636 21.6516 16.7741 21.6516H6.22589C3.53637 21.6516 1.34836 19.4636 1.34836 16.7743V6.22589C1.34836 3.53637 3.53637 1.34836 6.22589 1.34836H16.7743C19.4636 1.34836 21.6516 3.53637 21.6516 6.22589V16.7743Z" fill="white"/>
<path d="M11.5 5.21111C8.03224 5.21111 5.21111 8.03224 5.21111 11.5C5.21111 14.9678 8.03224 17.7889 11.5 17.7889C14.9678 17.7889 17.7889 14.9678 17.7889 11.5C17.7889 8.03224 14.9678 5.21111 11.5 5.21111ZM11.5 16.4405C8.77591 16.4405 6.55947 14.2243 6.55947 11.5C6.55947 8.77591 8.77591 6.55947 11.5 6.55947C14.2243 6.55947 16.4405 8.77591 16.4405 11.5C16.4405 14.2243 14.2243 16.4405 11.5 16.4405Z" fill="white"/>
<path d="M17.9393 2.97765C16.9145 2.97765 16.081 3.81134 16.081 4.83594C16.081 5.86072 16.9145 6.69441 17.9393 6.69441C18.964 6.69441 19.7977 5.86072 19.7977 4.83594C19.7977 3.81116 18.964 2.97765 17.9393 2.97765ZM17.9393 5.34588C17.6582 5.34588 17.4293 5.11706 17.4293 4.83594C17.4293 4.55466 17.6582 4.32601 17.9393 4.32601C18.2206 4.32601 18.4494 4.55466 18.4494 4.83594C18.4494 5.11706 18.2206 5.34588 17.9393 5.34588Z" fill="white"/>
</svg>
