<svg width="54" height="53" viewBox="0 0 54 53" fill="none" xmlns="http://www.w3.org/2000/svg">
<path fill-rule="evenodd" clip-rule="evenodd" d="M26.042 0.154541L26.487 0.353005C35.2025 4.23957 40.3337 10.4018 43.1649 16.0508L53.5572 18.1436L54 18.2329L53.9889 18.6838C53.7454 28.5034 48.5045 35.939 43.3242 40.6559L44.1189 51.1482L44.1525 51.5901L43.7245 51.7071C36.5049 53.6832 29.8909 52.3375 24.5737 49.8688C23.6046 49.4188 22.6777 48.9313 21.7971 48.419L12.5913 52.75L12.1416 52.9616L11.8947 52.5307C6.92575 43.859 6.55846 35.3349 7.73186 28.8589L0.18543 20.4575L0 20.318C2.81555 16.5852 10.1986 10.4446 20.9208 9.10347L25.8001 0.577106L26.042 0.154541ZM1.43904 20.2431L7.99675 27.5438C8.76247 24.0929 9.94205 21.3211 11.0034 19.5581L11.2663 19.1215L11.717 19.3603L27.3093 27.6182L30.5705 10.3339C15.8193 8.05809 5.39258 15.5852 1.43904 20.2431ZM46.1832 26.4366C46.0673 24.1917 45.3712 20.8786 43.742 17.2637L52.8978 19.1075C52.3389 32.6485 41.8691 41.4628 36.1992 44.4588L28.5708 28.8899L45.7049 26.9984L46.2094 26.9427L46.1832 26.4366ZM45.0731 25.9867L28.3647 27.831L31.7307 9.99105L31.8323 9.45316L31.2918 9.36163C28.0735 8.81643 25.0494 8.72422 22.2403 8.9646L26.4914 1.53578C40.2804 7.90234 44.5713 20.17 45.0731 25.9867ZM42.3119 41.5449C40.0565 43.4542 37.8759 44.8383 36.1952 45.6685L35.7106 45.9079L35.473 45.4229L27.5872 29.3283L14.2796 40.9449C16.3772 43.3768 20.148 46.6283 25.0277 48.894C30.0647 51.2328 36.2589 52.5108 43.0117 50.7836L42.3119 41.5449ZM11.6708 20.5527L26.816 28.5736L13.1739 40.4821L12.782 40.8243L13.1112 41.2267C14.6721 43.1355 17.2892 45.599 20.6936 47.7497L12.5852 51.5644C5.28356 38.4149 8.79262 25.7099 11.6708 20.5527Z" fill="black"/>
</svg>
