<svg width="17" height="17" viewBox="0 0 17 17" fill="none" xmlns="http://www.w3.org/2000/svg">
<path fill-rule="evenodd" clip-rule="evenodd" d="M10.3199 8.50004L15.7794 3.04056C16.2819 2.53801 16.2819 1.72321 15.7794 1.22074C15.2768 0.718184 14.4621 0.718184 13.9595 1.22074L8.49998 6.68028L3.04043 1.22066C2.53788 0.718112 1.72316 0.718112 1.22061 1.22066C0.71813 1.72321 0.71813 2.53801 1.22061 3.04049L6.68016 8.49996L1.22061 13.9595C0.71813 14.4621 0.71813 15.2769 1.22061 15.7793C1.72316 16.2819 2.53788 16.2819 3.04043 15.7793L8.49998 10.3198L13.9595 15.7793C14.462 16.2819 15.2768 16.2819 15.7794 15.7793C16.2819 15.2768 16.2819 14.4621 15.7794 13.9595L10.3199 8.50004Z" fill="#A4A4A4"/>
</svg>
