<svg xmlns="http://www.w3.org/2000/svg" xmlns:xlink="http://www.w3.org/1999/xlink"><defs><style>
    .sprite-symbol-usage {display: none;}
    .sprite-symbol-usage:target {display: inline;}
  </style><symbol viewBox="0 0 23 19" id="arrow_left"><path fill-rule="evenodd" clip-rule="evenodd" d="M22.06 8.161 3.773 8.108l7.021-6.528A.889.889 0 0 0 10.83.308.93.93 0 0 0 9.534.273L1.515 7.729a1.773 1.773 0 0 0 .008 2.56l7.96 7.487c.177.167.404.25.631.25a.922.922 0 0 0 .665-.277.888.888 0 0 0-.027-1.272L3.739 9.908l18.316.053c.506.002.917-.4.919-.897a.909.909 0 0 0-.914-.903Z" /></symbol><symbol viewBox="0 0 23 19" id="arrow_right"><path fill-rule="evenodd" clip-rule="evenodd" d="m.935 8.492 18.287-.053-7.021-6.528A.889.889 0 0 1 12.165.64a.93.93 0 0 1 1.296-.035l8.02 7.456a1.773 1.773 0 0 1-.01 2.56l-7.96 7.488a.922.922 0 0 1-.63.25.922.922 0 0 1-.665-.278.888.888 0 0 1 .027-1.272l7.013-6.569-18.316.053a.909.909 0 0 1-.919-.897.909.909 0 0 1 .914-.903Z" /></symbol><symbol fill="none" viewBox="0 0 191 191" id="as"><circle cx="95.5" cy="95.5" r="95" fill="url(#as_a)" stroke="#fff" /><g filter="url(#as_b)"><circle cx="96" cy="97" r="72" fill="#4C97CF" /><circle cx="96" cy="97" r="72" fill="url(#as_c)" fill-opacity=".47" /></g><path d="m127.527 93.928-46.223-26.55a2.842 2.842 0 0 0-2.871.023A2.96 2.96 0 0 0 77 69.951v53.099a2.96 2.96 0 0 0 1.433 2.549c.45.265.953.401 1.456.401.485 0 .976-.124 1.415-.378l46.223-26.55A2.97 2.97 0 0 0 129 96.5a2.97 2.97 0 0 0-1.473-2.572Z" fill="#fff" /><defs><filter id="as_b" x="19" y="21.8" width="156" height="156" filterUnits="userSpaceOnUse" color-interpolation-filters="sRGB"><feFlood flood-opacity="0" result="BackgroundImageFix"></feFlood><feColorMatrix in="SourceAlpha" values="0 0 0 0 0 0 0 0 0 0 0 0 0 0 0 0 0 0 127 0" result="hardAlpha"></feColorMatrix><feOffset dx="1" dy="2.8"></feOffset><feGaussianBlur stdDeviation="3"></feGaussianBlur><feColorMatrix values="0 0 0 0 0 0 0 0 0 0 0 0 0 0 0 0 0 0 0.15 0"></feColorMatrix><feBlend in2="BackgroundImageFix" result="effect1_dropShadow_4_8"></feBlend><feBlend in="SourceGraphic" in2="effect1_dropShadow_4_8" result="shape"></feBlend></filter></defs></symbol><linearGradient id="as_a" x1="95.5" y1="0" x2="95.5" y2="191" gradientUnits="userSpaceOnUse"><stop stop-color="#796F72" stop-opacity=".21" /><stop offset="0" stop-color="#DF504D" stop-opacity="0" /><stop offset="1" stop-color="#550706" stop-opacity=".04" /></linearGradient><linearGradient id="as_c" x1="96" y1="25" x2="96" y2="169" gradientUnits="userSpaceOnUse"><stop stop-color="#fff" /><stop offset="1" stop-color="#fff" stop-opacity="0" /></linearGradient><symbol fill="none" viewBox="0 0 37 37" id="burger"><path d="M1.445 17.055h34.11a1.445 1.445 0 0 1 0 2.89H1.445a1.445 1.445 0 1 1 0-2.89ZM1.445 5.492h34.11a1.445 1.445 0 1 1 0 2.89H1.445a1.445 1.445 0 1 1 0-2.89ZM1.445 28.617h34.11a1.445 1.445 0 0 1 0 2.89H1.445a1.445 1.445 0 1 1 0-2.89Z" fill="#000" /></symbol><symbol fill="none" viewBox="0 0 70 70" id="card-icon-1"><g clip-path="url(#card-icon-1_a)"><path d="M1.367 48.945h19.961v19.688H1.368V48.945Z" fill="#87B0EC" /><path d="M21.328 30.352h27.344v38.28H21.328v-38.28Z" fill="#868EAF" /><path d="M48.672 48.945h19.96v19.688h-19.96V48.945Z" fill="#DFECFF" /><path d="m35 24.507-7.616 5.56c-1.137.829-2.67-.285-2.231-1.622l2.933-8.961-7.654-5.536c-1.14-.824-.556-2.623.85-2.623h9.445l2.894-8.954c.433-1.338 2.325-1.338 2.758 0l2.895 8.954h9.445c1.406 0 1.988 1.8.85 2.623l-7.655 5.536 2.934 8.961c.438 1.337-1.095 2.45-2.232 1.621L35 24.507Z" fill="#FFA76B" /><path d="M68.633 47.578H50.039V30.351c0-.755-.612-1.367-1.367-1.367H46.29a2.887 2.887 0 0 0-.143-.964l-2.623-8.013 6.846-4.95a2.775 2.775 0 0 0 1.029-3.15 2.775 2.775 0 0 0-2.68-1.95h-8.451L37.679 1.95A2.773 2.773 0 0 0 35 0a2.774 2.774 0 0 0-2.679 1.95l-2.588 8.008H21.28a2.774 2.774 0 0 0-2.68 1.949 2.775 2.775 0 0 0 1.03 3.15l6.845 4.95-2.623 8.013c-.106.321-.15.647-.144.964h-2.38c-.756 0-1.368.612-1.368 1.367v17.227H1.367C.612 47.578 0 48.19 0 48.945v19.688C0 69.388.612 70 1.367 70h67.266c.755 0 1.367-.612 1.367-1.367v-4.375a1.367 1.367 0 1 0-2.734 0v3.008H50.038V50.312h17.227v3.008a1.367 1.367 0 1 0 2.734 0v-4.375c0-.755-.612-1.367-1.367-1.367ZM26.452 28.87l2.933-8.96a1.367 1.367 0 0 0-.498-1.534l-7.654-5.535c-.034-.024-.049-.035-.03-.092.018-.057.037-.057.078-.057h9.446c.593 0 1.118-.383 1.3-.947l2.895-8.954c.013-.039.019-.057.078-.057.06 0 .065.018.078.057l2.894 8.954c.183.565.708.947 1.301.947h9.446c.04 0 .06 0 .078.056.018.058.004.068-.03.092l-7.654 5.536a1.368 1.368 0 0 0-.498 1.533l2.934 8.961c.012.039.018.057-.03.092-.048.035-.064.024-.097 0l-7.616-5.56a1.364 1.364 0 0 0-1.612 0l-7.616 5.56c-.034.024-.049.035-.097 0s-.042-.053-.03-.092ZM35 26.2l3.815 2.784h-7.63L35 26.2ZM2.734 50.312h17.227v16.954H2.734V50.312Zm19.961-1.367V31.72h3.74c.032 0 .063.003.095.003l.094-.003h16.753c.062.002.124.002.186 0h3.742v35.547h-24.61v-18.32ZM61.25 4.705c.755 0 1.367-.612 1.367-1.367v-1.97a1.367 1.367 0 1 0-2.734 0v1.97c0 .755.612 1.367 1.367 1.367ZM61.25 13.672c.755 0 1.367-.612 1.367-1.367v-1.971a1.367 1.367 0 1 0-2.734 0v1.97c0 .756.612 1.368 1.367 1.368ZM64.748 8.203h1.97a1.367 1.367 0 1 0 0-2.734h-1.97a1.367 1.367 0 1 0 0 2.734ZM55.781 8.203h1.97a1.367 1.367 0 1 0 0-2.734h-1.97a1.367 1.367 0 1 0 0 2.734ZM8.75 21.843c.755 0 1.367-.613 1.367-1.368v-1.97a1.367 1.367 0 1 0-2.734 0v1.97c0 .755.612 1.367 1.367 1.367Z" fill="#000" /><path d="M8.75 30.81c.755 0 1.367-.613 1.367-1.368v-1.971a1.367 1.367 0 1 0-2.734 0v1.971c0 .755.612 1.367 1.367 1.367ZM12.248 25.34h1.97a1.367 1.367 0 0 0 0-2.734h-1.97a1.367 1.367 0 1 0 0 2.735ZM3.281 25.34h1.97a1.367 1.367 0 0 0 0-2.734h-1.97a1.367 1.367 0 1 0 0 2.735ZM68.633 57.422c-.36 0-.713.146-.967.4-.254.255-.4.608-.4.967 0 .36.146.712.4.967.254.254.607.4.967.4s.712-.146.967-.4c.254-.255.4-.608.4-.967 0-.36-.146-.712-.4-.967a1.378 1.378 0 0 0-.967-.4Z" fill="#000" /></g><defs></defs></symbol><clipPath id="card-icon-1_a"><path fill="#fff" d="M0 0h70v70H0z" /></clipPath><symbol viewBox="0 0 12 9" id="check"><path fill-rule="evenodd" clip-rule="evenodd" d="m4 8.3-4-4 1.1-1.1L4 6.1 10.1 0l1.1 1.1L4 8.3Z" /></symbol><symbol viewBox="0 0 16 16" id="clock"><path d="M8 .25A7.749 7.749 0 0 0 .25 8 7.749 7.749 0 0 0 8 15.75 7.749 7.749 0 0 0 15.75 8 7.749 7.749 0 0 0 8 .25ZM14.75 8A6.75 6.75 0 0 1 8 14.75 6.75 6.75 0 0 1 1.25 8 6.75 6.75 0 0 1 8 1.25 6.75 6.75 0 0 1 14.75 8Zm-4.653 2.76L7.559 8.915a.377.377 0 0 1-.153-.303V3.625c0-.206.169-.375.375-.375h.438c.206 0 .375.169.375.375v4.572L10.797 9.8a.375.375 0 0 1 .081.525l-.256.353a.378.378 0 0 1-.525.081Z" /></symbol><symbol fill="none" viewBox="0 0 13 22" id="facebook"><path d="M8.03 22H4.362c-.613 0-1.111-.479-1.111-1.067v-7.947h-2.14C.498 12.986 0 12.507 0 11.92V8.514c0-.588.498-1.067 1.111-1.067h2.14V5.742c0-1.691.553-3.13 1.598-4.16C5.9.547 7.367 0 9.094 0l2.797.004C12.502.005 13 .484 13 1.072v3.161c0 .589-.498 1.067-1.11 1.067h-1.884c-.574 0-.72.112-.752.145-.052.057-.113.216-.113.655v1.347h2.607c.196 0 .386.046.55.134.352.189.571.547.571.933l-.001 3.405c0 .588-.499 1.067-1.111 1.067H9.14v7.947C9.141 21.52 8.643 22 8.03 22Zm-3.436-1.29h3.204V12.41c0-.393.333-.713.742-.713h2.985l.001-2.96H8.54c-.41 0-.742-.319-.742-.712V6.1c0-.504.053-1.077.45-1.508.478-.52 1.232-.58 1.758-.58l1.651-.001V1.294L9.093 1.29c-2.775 0-4.5 1.706-4.5 4.452v2.282c0 .393-.332.713-.74.713h-2.51v2.96h2.51c.408 0 .74.319.74.712v8.301Z" fill="#fff" /></symbol><symbol fill="none" viewBox="0 0 23 23" id="instagram"><path d="M16.774 0H6.226A6.233 6.233 0 0 0 0 6.226v10.548A6.233 6.233 0 0 0 6.226 23h10.548A6.233 6.233 0 0 0 23 16.774V6.226A6.233 6.233 0 0 0 16.774 0Zm4.878 16.774a4.883 4.883 0 0 1-4.878 4.878H6.226a4.883 4.883 0 0 1-4.878-4.878V6.226a4.883 4.883 0 0 1 4.878-4.878h10.548a4.883 4.883 0 0 1 4.878 4.878v10.548Z" fill="#fff" /><path d="M11.5 5.211A6.296 6.296 0 0 0 5.211 11.5a6.296 6.296 0 0 0 6.289 6.289 6.296 6.296 0 0 0 6.289-6.289A6.296 6.296 0 0 0 11.5 5.211Zm0 11.23A4.946 4.946 0 0 1 6.56 11.5a4.946 4.946 0 0 1 4.94-4.94 4.946 4.946 0 0 1 4.94 4.94 4.946 4.946 0 0 1-4.94 4.94ZM17.94 2.978a1.86 1.86 0 0 0-1.859 1.858 1.86 1.86 0 0 0 1.858 1.858 1.86 1.86 0 0 0 1.859-1.858 1.86 1.86 0 0 0-1.859-1.858Zm0 2.368a.51.51 0 1 1 0-1.021.51.51 0 0 1 0 1.02Z" fill="#fff" /></symbol><symbol viewBox="0 0 54 53" id="logo"><path fill-rule="evenodd" clip-rule="evenodd" d="m26.042.155.445.198c8.716 3.887 13.847 10.049 16.678 15.698l10.392 2.093.443.089-.011.45c-.244 9.82-5.484 17.256-10.665 21.973l.795 10.492.034.442-.428.117c-7.22 1.976-13.834.63-19.151-1.838-.97-.45-1.896-.938-2.777-1.45l-9.206 4.331-.45.212-.246-.431c-4.97-8.672-5.337-17.196-4.163-23.672L.185 20.457 0 20.319c2.816-3.733 10.199-9.873 20.92-11.215L25.8.577l.242-.422ZM1.439 20.243l6.558 7.3c.765-3.45 1.945-6.222 3.006-7.985l.263-.436.451.238 15.592 8.258 3.261-17.284C15.82 8.058 5.393 15.585 1.44 20.244Zm44.744 6.194c-.116-2.245-.812-5.558-2.441-9.173l9.156 1.844c-.56 13.54-11.029 22.355-16.699 25.35L28.571 28.89l17.134-1.892.504-.055-.026-.506Zm-1.11-.45L28.365 27.83l3.366-17.84.101-.538-.54-.091a35.776 35.776 0 0 0-9.052-.397l4.251-7.43c13.79 6.367 18.08 18.635 18.582 24.452Zm-2.761 15.558c-2.255 1.91-4.436 3.293-6.117 4.123l-.484.24-.238-.485-7.886-16.095L14.28 40.945c2.097 2.432 5.868 5.683 10.748 7.949 5.037 2.339 11.23 3.617 17.984 1.89l-.7-9.24ZM11.67 20.553l15.145 8.02-13.642 11.91-.392.341.33.403c1.56 1.909 4.177 4.372 7.582 6.523l-8.109 3.814c-7.301-13.15-3.792-25.854-.914-31.011Z" /></symbol><symbol fill="none" viewBox="0 0 17 17" id="popup_close"><path fill-rule="evenodd" clip-rule="evenodd" d="m10.32 8.5 5.46-5.46a1.287 1.287 0 0 0-1.82-1.82L8.5 6.68 3.04 1.22a1.287 1.287 0 1 0-1.82 1.82L6.68 8.5l-5.46 5.46a1.287 1.287 0 0 0 1.82 1.82l5.46-5.46 5.46 5.46a1.287 1.287 0 1 0 1.82-1.82L10.32 8.5Z" fill="#A4A4A4" /></symbol><symbol fill="none" viewBox="0 0 74 61" id="quote"><path d="M0 .125V30.5h20.25c0 11.163-9.077 20.25-20.25 20.25v10.125c16.75 0 30.375-13.626 30.375-30.375V.125H0ZM43.261.125V30.5h20.25c0 11.163-9.077 20.25-20.25 20.25v10.125c16.75 0 30.375-13.626 30.375-30.375V.125H43.261Z" fill="#030104" /></symbol><symbol fill="none" viewBox="0 0 528 146" id="tab"><path d="M528 1H179.894c-22.092 0-40 17.909-40 40v60c0 22.247-24.128 44-52.408 44H0" stroke="#000" stroke-dasharray="6 6" /></symbol><symbol fill="none" viewBox="0 0 40 27" id="vk"><g filter="url(#vk_a)"><path d="M31.107 13.177c-.33-.44-.26-.728-.006-1.169.316-.55.945-1.388 1.61-2.276 2.135-2.847 3.513-4.82 3.228-6.226a.943.943 0 0 0-.926-.751c-.003 0-4.649.001-6.364.01a.935.935 0 0 0-.9.66c-.207.69-1.012 2.553-1.989 4.26-1.266 2.212-2.096 2.906-2.388 3.027l-.046-.014c-.095-.117-.262-.433-.33-1.25-.071-.856-.008-1.89.053-2.89.072-1.17.134-2.18-.014-2.9-.102-.264-.024-1.13-.838-1.311-1.121-.25-2.643-.334-3.728-.346-2.57-.025-3.325.342-3.696.667a.93.93 0 0 0 .325 1.588c.576.191.781.435.946 1.584.104.734.159 1.966.045 3.065-.159 1.55-.539 1.86-.576 1.886-.08-.027-.712-.298-1.851-2.588-.98-1.97-1.804-4.337-2.188-5.319a.944.944 0 0 0-.881-.597H4.945a.948.948 0 0 0-.78.406.928.928 0 0 0-.101.867c1.77 4.538 3.8 9.186 6.647 12.438C13.658 19.364 17.295 21 21.83 21a.94.94 0 0 0 .945-.936c0-1.614.229-2.093.586-2.765.198-.372.392-.531.498-.554.095-.022.264.047.451.186.538.396.964.918 1.416 1.47.65.795 1.323 1.618 2.391 2.157.582.293 1.624.441 2.221.433h4.717a.932.932 0 0 0 .944-.965c-.115-2.766-4.029-5.774-4.892-6.849Zm-.775 5.952h-.015c-.394.01-1.11-.121-1.343-.239-.71-.358-1.206-.965-1.78-1.667-.505-.618-1.028-1.256-1.755-1.793-1.34-.989-2.857-.677-3.749.996-.5.938-.693 1.557-.774 2.678-3.569-.199-6.377-1.59-8.778-4.332-2.4-2.741-4.22-6.655-5.809-10.614h3.61c1.412 3.767 3.244 8.506 5.571 8.506.572 0 1.085-.24 1.484-.695 1.532-1.746.927-6.344.92-6.39-.08-.567-.197-1.162-.477-1.692 1.2-.047 2.808.03 3.752.169.09.487.032 1.454-.026 2.388-.139 2.277-.283 4.626.95 5.698.037.033.722.444 1.144.46.768.03 2.025-.341 4.056-3.838.829-1.426 1.599-3.067 2.013-4.14 1.365-.003 3.277-.007 4.533-.006-.554 1.211-1.778 2.817-2.665 3.999-.73.975-1.362 1.817-1.735 2.465-.693 1.207-.577 2.28.145 3.229a.26.26 0 0 0 .012.016c.896 1.127 3.223 2.876 4.192 4.802h-3.476Z" fill="#fff" /></g><defs><filter id="vk_a" x="0" y="0" width="40" height="27" filterUnits="userSpaceOnUse" color-interpolation-filters="sRGB"><feFlood flood-opacity="0" result="BackgroundImageFix"></feFlood><feColorMatrix in="SourceAlpha" values="0 0 0 0 0 0 0 0 0 0 0 0 0 0 0 0 0 0 127 0" result="hardAlpha"></feColorMatrix><feOffset dy="2"></feOffset><feGaussianBlur stdDeviation="2"></feGaussianBlur><feColorMatrix values="0 0 0 0 0 0 0 0 0 0 0 0 0 0 0 0 0 0 0.25 0"></feColorMatrix><feBlend in2="BackgroundImageFix" result="effect1_dropShadow_1_291"></feBlend><feBlend in="SourceGraphic" in2="effect1_dropShadow_1_291" result="shape"></feBlend></filter></defs></symbol></defs><use id="arrow_left-usage" xlink:href="#arrow_left" class="sprite-symbol-usage" /><use id="arrow_right-usage" xlink:href="#arrow_right" class="sprite-symbol-usage" /><use id="as-usage" xlink:href="#as" class="sprite-symbol-usage" /><use id="burger-usage" xlink:href="#burger" class="sprite-symbol-usage" /><use id="card-icon-1-usage" xlink:href="#card-icon-1" class="sprite-symbol-usage" /><use id="check-usage" xlink:href="#check" class="sprite-symbol-usage" /><use id="clock-usage" xlink:href="#clock" class="sprite-symbol-usage" /><use id="facebook-usage" xlink:href="#facebook" class="sprite-symbol-usage" /><use id="instagram-usage" xlink:href="#instagram" class="sprite-symbol-usage" /><use id="logo-usage" xlink:href="#logo" class="sprite-symbol-usage" /><use id="popup_close-usage" xlink:href="#popup_close" class="sprite-symbol-usage" /><use id="quote-usage" xlink:href="#quote" class="sprite-symbol-usage" /><use id="tab-usage" xlink:href="#tab" class="sprite-symbol-usage" /><use id="vk-usage" xlink:href="#vk" class="sprite-symbol-usage" /></svg>