<svg width="40" height="27" viewBox="0 0 40 27" fill="none" xmlns="http://www.w3.org/2000/svg">
<g filter="url(#filter0_d_1_291)">
<path d="M31.1068 13.1771C30.7762 12.7374 30.8478 12.4491 31.1009 12.0083C31.4168 11.4589 32.0456 10.6202 32.7113 9.73239C34.8464 6.88451 36.2243 4.9127 35.939 3.50631C35.8501 3.06882 35.4623 2.75487 35.0128 2.75487C35.0102 2.75487 30.364 2.75596 28.6492 2.76437C28.2329 2.7662 27.8669 3.02935 27.7484 3.4248C27.5421 4.11411 26.7366 5.9781 25.7602 7.68456C24.4941 9.89722 23.6645 10.5906 23.3723 10.7123L23.3262 10.698C23.2306 10.581 23.0645 10.2653 22.9963 9.44767C22.925 8.59243 22.9881 7.5581 23.0494 6.55776C23.121 5.3882 23.183 4.37799 23.035 3.65762C22.9332 3.3941 23.0106 2.52826 22.1966 2.34662C21.0755 2.09626 19.5541 2.01256 18.4692 2.00123C15.8998 1.97601 15.1436 2.34333 14.7732 2.66751C14.5204 2.88863 14.4056 3.22671 14.4728 3.55419C14.5396 3.88166 14.7776 4.1492 15.0975 4.25556C15.6736 4.44744 15.8791 4.69085 16.0437 5.84031C16.1481 6.57384 16.2027 7.80554 16.0894 8.90456C15.93 10.455 15.5503 10.7653 15.513 10.7905C15.4322 10.7642 14.8012 10.493 13.6617 8.20282C12.6812 6.23284 11.8583 3.86595 11.4738 2.88425C11.3328 2.52424 10.983 2.28704 10.593 2.28704H4.94486C4.63341 2.28704 4.34189 2.43908 4.1655 2.69346C3.98948 2.94784 3.9511 3.27203 4.06365 3.56003C5.83307 8.09793 7.86339 12.7458 10.7111 15.9983C13.6576 19.3641 17.2946 21 21.8298 21C22.3516 21 22.7745 20.5812 22.7745 20.0644C22.7745 18.4504 23.0036 17.9712 23.3612 17.2987C23.5594 16.9274 23.7531 16.768 23.8586 16.7446C23.9542 16.7227 24.1229 16.7925 24.3103 16.931C24.8476 17.3272 25.2742 17.8488 25.7255 18.4007C26.376 19.196 27.0488 20.0187 28.1171 20.5581C28.6994 20.8509 29.7407 20.9993 30.3385 20.9905H35.0552C35.5922 20.9905 36.0213 20.557 35.9992 20.0256C35.8837 17.26 31.9703 14.252 31.1068 13.1771ZM30.3319 19.1287C30.3267 19.1287 30.3219 19.1287 30.3167 19.1287C29.9226 19.1382 29.2068 19.0077 28.9735 18.89C28.2643 18.5319 27.768 17.9252 27.1934 17.2231C26.6886 16.6054 26.1664 15.9669 25.4391 15.4303C24.0992 14.441 22.5822 14.7531 21.6903 16.4256C21.1907 17.3641 20.9969 17.9825 20.9165 19.1039C17.347 18.905 14.5392 17.5147 12.1384 14.7721C9.73834 12.0306 7.91726 8.1173 6.32903 4.15834H9.93945C11.3513 7.92469 13.1827 12.6636 15.5101 12.6636C16.0821 12.6636 16.595 12.4235 16.9939 11.9688C18.5257 10.2229 17.9208 5.62504 17.9142 5.57826C17.8334 5.01212 17.7175 4.4171 17.4367 3.88678C18.6364 3.84 20.2449 3.91712 21.1885 4.056C21.2796 4.5432 21.2206 5.50954 21.1634 6.44446C21.0242 8.72072 20.8803 11.0704 22.1132 12.1424C22.1501 12.1746 22.8346 12.5861 23.2571 12.6011C24.0254 12.6314 25.2816 12.2605 27.3133 8.76421C28.1418 7.33844 28.9115 5.69667 29.3259 4.62397C30.6909 4.62141 32.6035 4.61702 33.8593 4.61812C33.3054 5.82935 32.0806 7.43493 31.1943 8.61692C30.4632 9.59204 29.8319 10.4341 29.4592 11.0825C28.7658 12.2886 28.8824 13.3628 29.6042 14.3108C29.6079 14.3163 29.6119 14.3214 29.616 14.3266C30.5123 15.4545 32.8389 17.2033 33.8083 19.1287H30.3319Z" fill="white"/>
</g>
<defs>
<filter id="filter0_d_1_291" x="0" y="0" width="40" height="27" filterUnits="userSpaceOnUse" color-interpolation-filters="sRGB">
<feFlood flood-opacity="0" result="BackgroundImageFix"/>
<feColorMatrix in="SourceAlpha" type="matrix" values="0 0 0 0 0 0 0 0 0 0 0 0 0 0 0 0 0 0 127 0" result="hardAlpha"/>
<feOffset dy="2"/>
<feGaussianBlur stdDeviation="2"/>
<feColorMatrix type="matrix" values="0 0 0 0 0 0 0 0 0 0 0 0 0 0 0 0 0 0 0.25 0"/>
<feBlend mode="normal" in2="BackgroundImageFix" result="effect1_dropShadow_1_291"/>
<feBlend mode="normal" in="SourceGraphic" in2="effect1_dropShadow_1_291" result="shape"/>
</filter>
</defs>
</svg>
